<!-- Generated by IcoMoon.io -->
<svg version="1.1" xmlns="http://www.w3.org/2000/svg" width="16" height="16" viewBox="0 0 16 16">
<title>bag</title>
<path d="M11 3v-0.5c0-1.381-1.119-2.5-2.5-2.5-0.563 0-1.082 0.186-1.5 0.5-0.418-0.314-0.937-0.5-1.5-0.5-1.381 0-2.5 1.119-2.5 2.5v1.7l-2 0.3v10.5h2l1 1 10-1.5v-10.5l-3-1zM3 14h-1v-8.639l1-0.15v8.789zM8.5 1c0.827 0 1.5 0.673 1.5 1.5v0.65l-2 0.3v-0.95c0-0.454-0.122-0.88-0.333-1.247 0.239-0.16 0.525-0.253 0.833-0.253zM4 2.5c0-0.827 0.673-1.5 1.5-1.5 0.308 0 0.595 0.093 0.833 0.253-0.212 0.367-0.333 0.792-0.333 1.247v1.25l-2 0.3v-1.55zM13 13.639l-8 1.2v-8.478l8-1.2v8.478z"></path>
</svg>
