<!-- Generated by IcoMoon.io -->
<svg version="1.1" xmlns="http://www.w3.org/2000/svg" width="16" height="16" viewBox="0 0 16 16">
<title>location2</title>
<path d="M8 0c-2.761 0-5 2.239-5 5 0 5 5 9 5 9s5-4 5-9c0-2.761-2.239-5-5-5zM8 8c-1.657 0-3-1.343-3-3s1.343-3 3-3c1.657 0 3 1.343 3 3s-1.343 3-3 3zM12.285 10.9c-0.222 0.348-0.451 0.678-0.682 0.988 0.037 0.017 0.073 0.035 0.108 0.052 0.76 0.38 1.101 0.806 1.101 1.059s-0.34 0.679-1.101 1.059c-0.957 0.479-2.31 0.753-3.712 0.753s-2.754-0.275-3.712-0.753c-0.76-0.38-1.101-0.806-1.101-1.059s0.34-0.679 1.101-1.059c0.036-0.018 0.072-0.035 0.108-0.052-0.231-0.31-0.461-0.64-0.682-0.988-1.061 0.541-1.715 1.282-1.715 2.1 0 1.657 2.686 3 6 3s6-1.343 6-3c0-0.817-0.654-1.558-1.715-2.1z"></path>
</svg>
