<?xml version="1.0" encoding="UTF-8"?>
<svg width="133px" height="132px" viewBox="0 0 133 132" version="1.1" xmlns="http://www.w3.org/2000/svg" xmlns:xlink="http://www.w3.org/1999/xlink">
    <title>logo</title>
    <g id="Page-1" stroke="none" stroke-width="1" fill="none" fill-rule="evenodd">
        <g id="logo" fill="#000000" fill-rule="nonzero">
            <path d="M66.5,0.41056096 C68.6421954,0.41056096 70.3910789,2.09452943 70.4951047,4.21092062 L70.5,4.41056096 L70.5005306,14.2079641 C81.8744841,15.0793661 92.2174359,19.6352285 100.338472,26.6843829 L107.349441,19.6740994 C108.911539,18.1120022 111.444198,18.1120022 113.006296,19.6740994 C114.521057,21.1888602 114.566958,23.6162531 113.144001,25.1863251 L113.006296,25.3309536 L105.959524,32.3792656 C113.100876,40.8267889 117.579415,51.5984705 118.099773,63.3986657 L128.217172,63.3995368 C130.426311,63.3995368 132.217172,65.1903978 132.217172,67.3995368 C132.217172,69.5417322 130.533204,71.2906157 128.416812,71.3946415 L128.217172,71.3995368 L117.841479,71.3991253 C116.622564,82.5351851 111.864727,92.6069736 104.716807,100.465405 L112.107139,107.854662 C113.669236,109.416759 113.669236,111.949419 112.107139,113.511516 C110.592378,115.026277 108.164985,115.072179 106.594913,113.649221 L106.450284,113.511516 L98.8923557,105.953158 C91.0051885,112.312232 81.2098766,116.399173 70.5005306,117.219657 L70.5,127.95023 C70.5,130.159369 68.709139,131.95023 66.5,131.95023 C64.3578046,131.95023 62.6089211,130.266262 62.5048953,128.14987 L62.5,127.95023 L62.500187,117.219711 C51.3593772,116.366327 41.2077038,111.977984 33.164324,105.174082 L25.6505579,112.686691 C24.0884608,114.248788 21.5558008,114.248788 19.9937037,112.686691 C18.4789428,111.17193 18.4330409,108.744538 19.8559981,107.174466 L19.9937037,107.029837 L27.4719858,99.5522267 C20.7757954,91.8334354 16.3307227,82.1084108 15.1585215,71.3991253 L4.78282828,71.3995368 C2.57368928,71.3995368 0.782828283,69.6086758 0.782828283,67.3995368 C0.782828283,65.2573414 2.46679675,63.5084579 4.58318794,63.4044321 L4.78282828,63.3995368 L14.9002266,63.3986657 C15.4014069,52.0333769 19.57438,41.6221852 26.2617901,33.3226941 L19.1690233,26.2302549 C17.6069261,24.6681577 17.6069261,22.1354978 19.1690233,20.5734006 C20.6837842,19.0586397 23.1111771,19.0127379 24.681249,20.4356951 L24.8258776,20.5734006 L31.7485201,27.4959005 C40.0008341,19.9854216 50.6952173,15.1121686 62.500187,14.2079091 L62.5,4.41056096 C62.5,2.20142196 64.290861,0.41056096 66.5,0.41056096 Z M62.4998283,75.836561 L40.2657906,98.0719991 C46.4554806,103.0983 54.1154581,106.383691 62.5003454,107.182715 L62.4998283,75.836561 Z M70.4998283,77.560561 L70.5005188,107.182633 C78.4552368,106.424434 85.7574861,103.428437 91.7708133,98.8311629 L70.4998283,77.560561 Z M107.766039,71.399396 L75.6508283,71.398561 L97.6364885,93.3837358 C102.989574,87.3621172 106.622944,79.7771235 107.766039,71.399396 Z M55.6238283,71.398561 L25.2339611,71.399396 C26.3192565,79.3535094 29.6493549,86.5930303 34.5647763,92.4584068 L55.6238283,71.398561 Z M33.3843524,40.4441284 C28.4676655,46.8799926 25.3838843,54.7913894 24.9125109,63.3987322 L56.3378283,63.398561 Z M98.8569153,39.4805687 L74.9378283,63.398561 L108.087489,63.3987322 C107.592313,54.3567571 104.214239,46.0827868 98.8569153,39.4805687 Z M62.5003454,24.2449057 C53.4546816,25.1068973 45.2526837,28.862577 38.8302008,34.575994 L62.4998283,58.246561 Z M70.5005188,24.2449881 L70.4998283,56.522561 L93.2457269,33.7777636 C86.9689982,28.5136185 79.117582,25.0663173 70.5005188,24.2449881 Z" id="Combined-Shape"></path>
        </g>
    </g>
</svg>