<?xml version="1.0" encoding="UTF-8"?>
<svg width="16px" height="16px" viewBox="0 0 16 16" version="1.1" xmlns="http://www.w3.org/2000/svg" xmlns:xlink="http://www.w3.org/1999/xlink">
    <!-- Generator: Sketch 43.2 (39069) - http://www.bohemiancoding.com/sketch -->
    <title>monster</title>
    <desc>Created with Sketch.</desc>
    <defs></defs>
    <g id="Page-1" stroke="none" stroke-width="1" fill="none" fill-rule="evenodd">
        <g id="monster" transform="translate(0.000000, 0.500000)">
            <path d="M8.02695313,12 C12.4383921,12 16.0269531,11.349033 16.0269531,8.05691833 C16.0269531,4.76480361 12.3990975,0 7.98765857,0 C3.5762196,0 0.026953125,4.76480361 0.026953125,8.05691833 C0.026953125,11.349033 3.61551415,12 8.02695313,12 Z" id="Oval" fill="#000000"></path>
            <path d="M12.5,11.5 L11.5,14.5" id="Line" stroke="#000000" stroke-linecap="round" transform="translate(12.000000, 13.000000) scale(-1, 1) translate(-12.000000, -13.000000) "></path>
            <path d="M8,11.5 L8,14.5" id="Line" stroke="#000000" stroke-linecap="round" transform="translate(8.000000, 13.000000) scale(-1, 1) translate(-8.000000, -13.000000) "></path>
            <path d="M4,11.5 L3,14.5" id="Line" stroke="#000000" stroke-linecap="round"></path>
            <ellipse id="Oval-2" fill="#FFFFFF" cx="5.5" cy="5.5" rx="1.5" ry="1"></ellipse>
            <ellipse id="Oval-2" fill="#FFFFFF" cx="10.5" cy="5.5" rx="1.5" ry="1"></ellipse>
        </g>
    </g>
</svg>