<!-- Generated by IcoMoon.io -->
<svg version="1.1" xmlns="http://www.w3.org/2000/svg" width="16" height="16" viewBox="0 0 16 16">
<title>mustache</title>
<path d="M14.645 8.021c-0.211-0.064-0.439 0.018-0.561 0.201-0.327 0.491-0.734 0.761-1.146 0.761-0.408 0-0.793-0.271-0.982-0.689l-0.007-0.015c-0.229-0.509-0.466-1.035-0.815-1.462-0.442-0.542-0.992-0.817-1.634-0.817-0.817 0-1.544 0.394-2 1.002-0.456-0.608-1.183-1.002-2-1.002-0.642 0-1.192 0.275-1.634 0.817-0.348 0.427-0.586 0.953-0.815 1.462l-0.007 0.015c-0.189 0.419-0.574 0.689-0.982 0.689-0.412 0-0.819-0.27-1.146-0.761-0.122-0.183-0.35-0.265-0.561-0.201s-0.355 0.258-0.355 0.479c0 1.074 0.419 1.978 1.212 2.615 0.711 0.571 1.701 0.885 2.788 0.885 1.038 0 2.035-0.378 2.807-1.064 0.276-0.245 0.508-0.518 0.693-0.809 0.185 0.291 0.417 0.564 0.693 0.809 0.772 0.686 1.769 1.064 2.807 1.064 1.087 0 2.077-0.314 2.788-0.885 0.793-0.636 1.212-1.541 1.212-2.615 0-0.22-0.144-0.415-0.355-0.479z"></path>
</svg>
