<!-- Generated by IcoMoon.io -->
<svg version="1.1" xmlns="http://www.w3.org/2000/svg" width="16" height="16" viewBox="0 0 16 16">
<title>notebook</title>
<path d="M13.5 1h-11c-0.276 0-0.5 0.224-0.5 0.5v1.5h-1c-0.552 0-1 0.448-1 1s0.448 1 1 1h1v1h-1c-0.552 0-1 0.448-1 1s0.448 1 1 1h1v1h-1c-0.552 0-1 0.448-1 1s0.448 1 1 1h1v1h-1c-0.552 0-1 0.448-1 1s0.448 1 1 1h1v1.5c0 0.276 0.224 0.5 0.5 0.5h11c0.827 0 1.5-0.673 1.5-1.5v-12c0-0.827-0.673-1.5-1.5-1.5zM3 14c0.552 0 1-0.448 1-1s-0.448-1-1-1v-1c0.552 0 1-0.448 1-1s-0.448-1-1-1v-1c0.552 0 1-0.448 1-1s-0.448-1-1-1v-1c0.552 0 1-0.448 1-1s-0.448-1-1-1v-1h2v13h-2v-1z"></path>
</svg>
