<!-- Generated by IcoMoon.io -->
<svg version="1.1" xmlns="http://www.w3.org/2000/svg" width="16" height="16" viewBox="0 0 16 16">
<title>pen5</title>
<path d="M8.313 3.813c-0.663 0.643-2.003 1.973-2.239 2.209-1.838 1.838-6.153 6.957-6.074 9.977 3.020 0.080 8.139-4.236 9.977-6.074 0.236-0.236 1.566-1.576 2.209-2.239l-3.873-3.873zM14.761 3.19l-0.282-0.281 1.521-1.257-1.652-1.652-1.257 1.521-0.282-0.282c-0.872-0.051-2.278 0.793-3.663 1.907l3.707 3.707c0.419-0.521 0.798-1.045 1.107-1.542 0.93 0.767 0.243 3.017-3.682 5.967l0.722 0.722c3.5-2.5 5.766-5.5 3.571-7.882 0.131-0.346 0.205-0.663 0.19-0.928z"></path>
</svg>
