<!-- Generated by IcoMoon.io -->
<svg version="1.1" xmlns="http://www.w3.org/2000/svg" width="16" height="16" viewBox="0 0 16 16">
<title>weather-cloud-sun</title>
<path d="M13.922 10.626c1.192 0.29 2.078 1.365 2.078 2.648 0 1.504-1.217 2.723-2.719 2.726v0h-10.254c-1.672 0-3.027-1.356-3.027-3.029s1.355-3.029 3.027-3.029c0.184 0 0.365 0.017 0.54 0.049-0.014-0.097-0.021-0.196-0.021-0.296 0-1.154 0.935-2.089 2.088-2.089 0.672 0 1.27 0.318 1.652 0.812 0.681-0.863 1.735-1.418 2.92-1.418 2.022 0 3.666 1.615 3.717 3.626v0z"></path>
<path d="M5.634 6.856c0.591 0 1.152 0.179 1.621 0.507 0.756-0.668 1.715-1.060 2.737-1.108-0.126-1.819-1.641-3.255-3.491-3.255-1.933 0-3.5 1.567-3.5 3.5 0 0.544 0.124 1.059 0.346 1.519 0.517-0.704 1.35-1.163 2.288-1.163z"></path>
<path d="M6.5 0c0.276 0 0.5 0.224 0.5 0.5v1c0 0.276-0.224 0.5-0.5 0.5s-0.5-0.224-0.5-0.5v-1c0-0.276 0.224-0.5 0.5-0.5z"></path>
<path d="M0 6.5c0-0.276 0.224-0.5 0.5-0.5h1c0.276 0 0.5 0.224 0.5 0.5s-0.224 0.5-0.5 0.5h-1c-0.276 0-0.5-0.224-0.5-0.5z"></path>
<path d="M10.5 3c-0.128 0-0.256-0.049-0.354-0.146-0.195-0.195-0.195-0.512 0-0.707l1-1c0.195-0.195 0.512-0.195 0.707 0s0.195 0.512 0 0.707l-1 1c-0.098 0.098-0.226 0.146-0.354 0.146z"></path>
<path d="M2.5 3c-0.128 0-0.256-0.049-0.354-0.146l-1-1c-0.195-0.195-0.195-0.512 0-0.707s0.512-0.195 0.707 0l1 1c0.195 0.195 0.195 0.512 0 0.707-0.098 0.098-0.226 0.146-0.354 0.146z"></path>
</svg>
