<svg width="75" height="74" xmlns="http://www.w3.org/2000/svg" aria-labelledby="title-door"><title id="title-door">Door</title><g fill-rule="nonzero" fill="#934E0E"><path d="M49.7 40.6c1.7 0 3.1-1.4 3.1-3.1 0-1.7-1.4-3.1-3.1-3.1-1.7 0-3.1 1.4-3.1 3.1 0 1.7 1.5 3.1 3.1 3.1zm0-4.2c.6 0 1.1.5 1.1 1.1 0 .6-.5 1.1-1.1 1.1-.6 0-1.1-.5-1.1-1.1 0-.6.6-1.1 1.1-1.1z"/><path d="M73.6 66.6c.6 0 1-.4 1-1s-.4-1-1-1H61.9V1.3c0-.6-.4-1-1-1H14.4c-.6 0-1 .4-1 1v63.3H1.7c-.6 0-1 .4-1 1s.4 1 1 1h11.7v4H1.7c-.6 0-1 .4-1 1s.4 1 1 1h11.7v.2c0 .6.4 1 1 1H60.8c.6 0 1-.4 1-1v-.2h11.7c.6 0 1-.4 1-1s-.4-1-1-1H61.9v-4h11.7zm-18.1 1.2H19.8v-61h35.7v61zm-36.9 3c0-.2.1-.3.2-.5.2-.3.5-.5.8-.5H56.2c.1 0 .2 0 .3.1.4.1.7.5.7.9 0 .6-.4 1-1 1H19.6c-.5 0-1-.4-1-1zm38.9-2.7V5.8c0-.6-.4-1-1-1H18.8c-.6 0-1 .4-1 1v62.7c-.7.5-1.2 1.4-1.2 2.3 0 .4.1.7.2 1h-1.4V2.3h44.5v69.5h-.8c.1-.3.2-.6.2-1-.1-1.2-.8-2.2-1.8-2.7z"/></g></svg>