<svg xmlns="http://www.w3.org/2000/svg" width="16" height="16"><path d="M8 0a5 5 0 0 0-5 5c0 5 5 9 5 9s5-4 5-9a5 5 0 0 0-5-5zm0 8a3 3 0 1 1 0-6 3 3 0 0 1 0 6zm4.285 2.9a16.57 16.57 0 0 1-.682.988l.108.052c.76.38 1.101.806 1.101 1.059s-.34.679-1.101 1.059c-.957.479-2.31.753-3.712.753s-2.754-.275-3.712-.753c-.76-.38-1.101-.806-1.101-1.059s.34-.679 1.101-1.059l.108-.052c-.231-.31-.461-.64-.682-.988-1.061.541-1.715 1.282-1.715 2.1 0 1.657 2.686 3 6 3s6-1.343 6-3c0-.817-.654-1.558-1.715-2.1z"/></svg>