<svg xmlns="http://www.w3.org/2000/svg" width="2701" height="450"><path d="M2689.147 109.064c-17.495-31.706-55.209-55.754-96.172-55.754-36.028 0-67.716 14.755-67.716 53.014 0 32.215 39.891 54.067 81.417 80.855 45.32 28.404 92.326 63.342 92.326 124.014 0 79.222-77.026 127.826-166.085 127.826-36.607 0-74.83-7.096-117.99-23.485l7.08-105.447c20.78 42.087 59.583 75.392 116.9 75.392 44.266 0 77.026-21.29 77.026-58.459 0-31.689-26.788-51.345-59.53-71-68.858-41.509-112.527-74.866-112.527-134.941 0-90.165 75.375-120.203 153.49-120.203 45.32 0 73.759 8.203 102.69 8.203l-10.909 99.985m-381.845 94.486c-9.872 16.407-22.378 38.768-30.072 55.192-6.535 31.126-9.82 72.67-9.82 118.534 0 19.129 3.285 44.792 12.015 53.54h-114.16c20.184-19.111 28.404-136.539 27.333-173.708-15.3-52.978-36.098-103.796-67.769-165.54-20.165-38.767-43.686-75.41-58.441-82.489 25.663-2.16 58.441-3.811 74.303-3.811 28.386 0 36.062 3.811 53.558 42.07 27.262 61.743 47.48 108.135 59.513 142.581 28.966-45.355 49.166-76.481 75.392-119.096 6.552-10.381 12.015-23.485 12.015-36.062 0-9.855-1.651-20.763-6.007-25.682h113.088c-21.852 4.919-120.202 159.533-140.948 194.471m-397.162-95.558-67.716 146.92h110.33l-42.614-146.92m132.762 326.636c-36.08 0-38.785-1.072-67.751-100.494l-10.364-36.607c-17.46 8.186-48.64 12.015-98.333 12.015h-50.256l-8.748 18.567c-12.559 27.895-29.492 60.62-29.492 83.613 0 5.463.544 11.453 2.74 19.112h-298.285c16.951-19.112 22.414-80.838 30.6-192.855l1.633-26.753c4.374-63.921 7.694-113.088 7.115-147.482-.545-28.404-3.285-46.444-10.926-54.63h115.284c-16.407 12.578-22.432 80.294-30.055 192.31l-2.196 26.753c-2.74 41.526-8.185 84.123-8.185 125.648 0 19.094 7.64 23.468 27.332 23.468 69.894 0 87.407-1.633 119.06-22.94 19.657-36.063 42.088-81.418 63.905-128.389l29.546-62.815c27.841-59.004 55.139-119.114 55.139-130.567 0-8.22-2.178-15.844-5.428-23.503H1967s37.135 137.681 45.338 167.156l18.005 66.662c31.126 112 50.817 166.612 77.043 187.92-21.887 2.74-53.013 3.811-64.484 3.811m-743.471 4.391c-108.715 0-171.548-89.585-171.548-190.096 0-139.842 75.92-248.047 220.697-248.047 45.337 0 66.662 8.203 103.234 8.203l-10.909 107.626c-20.762-37.696-54.647-63.377-99.967-63.377-90.13 0-126.737 97.261-126.737 180.84 0 90.674 50.818 140.367 118.534 140.367 36.607 0 68.823-9.836 122.926-47.515-21.852 69.947-72.67 112-156.23 112M922.504 60.441c-10.381 0-22.976 0-32.778 1.089-3.285 18.022-6.025 49.166-9.854 99.405l-2.196 29.528c5.498 1.106 12.577 1.668 19.147 1.668 52.416 0 88.496-31.723 88.496-79.766 0-32.813-22.94-51.924-62.815-51.924m152.383 388.414c-31.126 0-38.785-4.936-49.149-19.146L907.731 265.82c-9.292-12.559-16.389-22.94-31.126-22.94h-2.74l-2.161 31.689c-2.758 43.159-4.392 77.605-4.392 103.269.545 28.404 3.83 45.864 11.488 52.978H764.623c16.371-14.755 22.361-63.922 31.67-192.854l1.652-26.753c4.374-63.36 7.659-112.544 7.097-146.938-.562-30.055-3.812-48.64-12.033-55.192h155.686c50.8 0 120.73 8.766 120.73 91.237 0 67.716-45.356 104.885-101.601 122.346 5.463 4.936 15.282 17.495 21.307 25.154l85.756 113.633c53.54 70.474 57.897 73.741 77.044 83.578-24.048 2.723-56.264 3.83-77.044 3.83M542.855 107.991l-68.331 146.92h110.893l-42.562-146.92m132.71 326.636c-36.028 0-38.768-1.072-67.717-100.494l-10.381-36.607c-17.513 8.186-48.64 12.015-98.351 12.015H448.86l-8.73 18.567c-8.748 19.691-30.055 60.128-29.51 83.613 0 5.463.544 10.926 2.74 19.112H312.304c28.948-28.949 65.555-96.138 116.356-204.852l29.51-62.816C484.923 106.36 513.344 41.892 513.344 32.6c0-8.22-2.16-15.844-5.463-23.503h91.8S623.674 100.334 645 176.253l18.022 66.662c31.144 112 50.8 166.611 77.026 187.919-23.485 2.722-52.996 3.794-64.484 3.794m-520.07-374.73c-8.203 0-19.111 0-29.493 1.106-4.374 29.493-7.114 57.897-9.275 89.023 0 0-1.65 26.753-1.65 25.664H126c53.54 0 102.725-18.567 102.725-67.699 0-28.439-23.503-48.095-73.232-48.095m-13.63 167.156h-30.038l-4.374 62.27c-2.178 27.333-3.285 50.257-3.83 77.571 0 3.847 12.015 12.033 40.402 12.033 59.003 0 97.806-29.493 97.806-78.133 0-54.085-44.266-73.74-99.967-73.74m6.552 203.762H.915c18.585-16.406 23.503-80.31 31.689-192.854l1.634-26.209c4.391-63.922 7.658-113.088 7.114-147.482-.545-29.51-3.83-48.64-12.033-55.192h164.978c39.33 0 118.007 2.196 118.007 84.123 0 54.63-50.818 88.496-97.244 100.546 65.555 6.552 114.722 38.224 114.722 105.957-.018 73.197-68.84 131.111-181.367 131.111" fill="#00AEEF"/></svg>