<svg width="133" height="132" xmlns="http://www.w3.org/2000/svg"><path d="M66.5.41a4 4 0 0 1 3.995 3.8l.005.2v9.798c11.374.871 21.717 5.427 29.838 12.476l7.011-7.01a4 4 0 0 1 5.795 5.512l-.138.145-7.046 7.048c7.14 8.448 11.62 19.22 12.14 31.02h10.117a4 4 0 0 1 .2 7.996l-.2.005h-10.376c-1.218 11.135-5.976 21.207-13.124 29.065l7.39 7.39a4 4 0 0 1-5.512 5.794l-.145-.137-7.558-7.559a51.403 51.403 0 0 1-28.391 11.267l-.001 10.73a4 4 0 0 1-7.995.2l-.005-.2v-10.73c-11.14-.854-21.292-5.242-29.336-12.046l-7.513 7.513a4 4 0 0 1-5.795-5.513l.138-.144 7.478-7.478C20.776 91.833 16.331 82.108 15.159 71.4H4.783a4 4 0 0 1-.2-7.995l.2-.004L14.9 63.4a51.425 51.425 0 0 1 11.362-30.076l-7.093-7.093a4 4 0 0 1 5.512-5.794l.145.137 6.923 6.923C40 19.986 50.695 15.112 62.5 14.208V4.41a4 4 0 0 1 4-4Zm-4 75.427L40.266 98.072a41.452 41.452 0 0 0 22.234 9.11V75.838Zm8 1.724v29.622a41.435 41.435 0 0 0 21.27-8.352L70.5 77.561Zm37.266-6.162H75.651l21.985 21.985a41.504 41.504 0 0 0 10.13-21.985Zm-52.142 0h-30.39a41.484 41.484 0 0 0 9.33 21.06l21.06-21.06Zm-22.24-30.955A41.457 41.457 0 0 0 24.913 63.4h31.425Zm65.473-.963-23.92 23.918h33.15a41.47 41.47 0 0 0-9.23-23.918ZM62.5 24.245c-9.045.862-17.247 4.618-23.67 10.331l23.67 23.67Zm8 0v32.278l22.746-22.745A41.462 41.462 0 0 0 70.5 24.245Z"/></svg>