<svg xmlns="http://www.w3.org/2000/svg" width="2290" height="365"><g fill="none" fill-rule="evenodd"><path d="M109.643 99.02c-2.425-27.988-14.578-35.627-26.73-35.627-17.017 0-26.731 12.71-26.731 33.086 0 55.977 106.922 83.966 106.922 175.597 0 53.423-34.032 83.98-82.63 83.98-51.036 0-77.767-43.268-80.192-91.619l51.036-7.626c0 33.086 14.578 50.893 31.594 50.893 17.017 0 29.156-12.71 29.156-30.53 0-66.172-106.922-84.006-106.922-180.682 0-53.449 29.169-83.98 82.617-83.98 43.747 0 68.052 33.086 72.903 81.438l-51.023 5.07Zm72.916 251.938V17.597h140.93V68.49h-87.482v86.521h68.053v48.339h-68.053v99.257h94.77v48.351H182.56Zm165.235 0V17.597h53.461v285.01h82.63v48.351h-136.09Zm148.231 0V17.597H644.27V68.49H549.5v86.521h70.464v48.339H549.5v147.608h-53.475ZM717.16 65.948h19.44c29.17 0 38.884 10.168 38.884 50.893 0 38.17-9.728 50.894-38.884 50.894h-19.44V65.948Zm0 150.15c9.727 0 21.88-2.554 26.73-2.554l38.884 137.427h53.461l-46.172-150.138c19.441-10.18 38.883-30.53 38.883-83.979 0-71.256-31.594-99.244-89.906-99.244h-75.33v333.36h53.462V216.1h-.013Zm145.806-198.5h53.474v333.361h-53.474V17.597Zm143.38 48.35h19.442c29.17 0 38.884 10.17 38.884 45.797v145.054c0 35.615-9.728 48.364-38.884 48.364h-19.441V65.948Zm-51.035 285.011h77.766c55.887 0 82.618-30.543 82.618-99.244v-132.33c0-68.702-26.731-101.787-82.618-101.787h-77.766v333.361ZM1220.192 183h87.494v167.958h-26.73l-9.728-22.904c-14.59 20.336-29.156 27.989-53.474 27.989-41.296 0-70.465-33.086-70.465-83.98V99.021c0-48.352 24.318-86.522 77.767-86.522 53.474 0 80.205 43.255 80.205 91.606v22.905h-51.05c0-50.907-9.7-63.617-31.594-63.617-12.14 0-21.867 7.626-21.867 35.628v173.055c0 20.337 4.864 35.615 24.293 35.615 21.893 0 29.156-15.278 29.156-48.364V228.81h-34.02V183h.013Zm119.075 167.958V17.597h140.943V68.49h-87.494v86.521h68.04v48.339h-68.04v99.257h94.796v48.351h-148.245Zm264.869-251.937c-2.438-27.989-14.565-35.628-26.73-35.628-17.004 0-26.731 12.71-26.731 33.086 0 55.977 106.922 83.966 106.922 175.597 0 53.423-34.02 83.98-82.63 83.98-51.023 0-77.767-43.268-80.205-91.619l51.049-7.626c0 33.086 14.591 50.893 31.594 50.893 17.017 0 29.156-12.71 29.156-30.53 0-66.172-106.922-84.006-106.922-180.682 0-53.449 29.182-83.98 82.63-83.98 43.747 0 68.04 33.086 72.903 81.438l-51.036 5.07Z" fill="#000" fill-rule="nonzero"/><path d="M1749.942 78.671c0-20.362 7.29-33.086 21.893-33.086 12.14 0 19.429 10.182 19.429 35.628 0 25.447-14.591 45.81-26.73 63.617-7.29-20.35-14.592-43.254-14.592-66.159Zm89.932 111.968c-2.438 20.363-9.727 40.712-17.016 61.075-14.565-20.363-29.156-43.267-38.883-68.714 24.318-27.989 53.474-58.52 53.474-101.787 0-40.712-24.318-68.7-63.202-68.7-46.159 0-68.039 33.072-68.039 78.895 0 30.53 14.591 66.171 24.318 91.605-21.893 25.447-41.321 61.088-41.321 94.173 0 48.339 29.156 78.883 75.341 78.883 26.73 0 43.747-7.653 60.75-25.46 17.004 17.807 36.458 25.46 58.313 25.46v-50.894c-9.702-2.555-19.43-7.652-29.157-15.278 12.166-27.989 24.293-55.978 29.157-86.534l-43.735-12.724Zm-102.085 81.437c0-17.833 4.864-27.988 14.591-43.267 9.728 25.434 26.731 48.364 41.322 68.701-7.289 7.652-12.166 10.181-24.292 10.181-17.03 0-31.62-17.807-31.62-35.615Zm296.476-142.511v-25.447c0-28.002-12.165-40.712-26.73-40.712-19.455 0-26.731 12.71-26.731 35.628v170.5c0 25.46 7.276 38.17 26.73 38.17 19.43 0 26.731-12.71 26.731-35.615v-40.738h53.449v40.738c0 45.797-26.731 83.98-80.18 83.98-53.474 0-80.204-38.17-80.204-83.98V99.021c0-48.352 26.73-86.522 80.205-86.522 53.448 0 80.179 43.255 80.179 91.606v25.447h-53.449v.013Zm199.255 55.977c0 27.989-9.702 40.712-26.73 40.712-17.004 0-26.732-12.71-26.732-40.712V93.937c0-30.531 9.728-40.725 26.731-40.725 17.016 0 26.73 10.18 26.73 40.725v91.605Zm-102.06-10.168c0 55.977 19.455 91.618 75.342 91.618 53.474 0 72.903-35.64 72.903-91.618v-73.798c0-53.436-19.429-91.606-72.903-91.606-55.887 0-75.341 38.17-75.341 91.606v73.798Z" stroke="#000" stroke-width="17.665"/></g></svg>