<svg id="LOGO_PROTOTYP" data-name="LOGO PROTOTYP" xmlns="http://www.w3.org/2000/svg" viewBox="0 0 60 80"><defs><linearGradient id="linear-gradient" x1="25.72" y1="46.74" x2="25.72" y2="88.51" gradientUnits="userSpaceOnUse"><stop offset="0" stop-color="#fff" stop-opacity=".3"/><stop offset=".02" stop-color="#fff" stop-opacity=".28"/><stop offset=".28" stop-color="#fff" stop-opacity=".13"/><stop offset=".48" stop-color="#fff" stop-opacity=".04"/><stop offset=".6" stop-color="#fff" stop-opacity="0"/></linearGradient><linearGradient id="linear-gradient-2" x1="44.44" y1="52.59" x2="44.44" y2="93.72" gradientUnits="userSpaceOnUse"><stop offset="0" stop-color="#fff" stop-opacity=".2"/><stop offset=".14" stop-color="#fff" stop-opacity=".13"/><stop offset=".36" stop-color="#fff" stop-opacity=".04"/><stop offset=".5" stop-color="#fff" stop-opacity="0"/></linearGradient><style>.cls-2{fill:#fff}</style></defs><title>Artboard 9</title><ellipse cx="30.69" cy="48.43" rx="24.63" ry="3.38" opacity=".05"/><g id="S"><g id="Kasten"><path class="cls-2" d="M38.51 30.34a27.55 27.55 0 00-7-3.78 28.32 28.32 0 01-5.36-2.87q-6-4.18-6-10.37a10.63 10.63 0 012.25-6.89 10.19 10.19 0 01.86-.94l-8.55 2A4.62 4.62 0 0011.18 13l7.08 30.59A4.62 4.62 0 0023.79 47l3.51-.81-.3-.03a33.76 33.76 0 01-6.78-2.92l3.66-8.18a16.3 16.3 0 0010.4 3.66c4 0 6-1.43 6-4.27a5.26 5.26 0 00-1.77-4.11zM57.85 34.45L50.77 3.86A4.62 4.62 0 0045.23.4l-5.15 1.19q.89.14 1.76.33a28.13 28.13 0 016.66 2.39l-3 8c-2.24-1.92-5.37-2.88-9.37-2.88q-5.38 0-5.39 4.28a3.86 3.86 0 001.77 3 36.82 36.82 0 007.56 3.66 23.64 23.64 0 016.39 3.55 12.68 12.68 0 012 2A12.35 12.35 0 0151 33.75a11.85 11.85 0 01-2.45 7.58L54.38 40a4.61 4.61 0 003.47-5.55z"/></g></g><g id="S-2" data-name="S"><g id="Kasten-2" data-name="Kasten"><path d="M34.35 55.2a16.34 16.34 0 00-10.43 3.66l-3.67-8.19a33.83 33.83 0 016.8-2.93l.27-.07-3.51-.81a4.63 4.63 0 00-5.55 3.47L11.18 81a4.63 4.63 0 003.47 5.55l8.56 2a10.22 10.22 0 01-.86-.95 10.66 10.66 0 01-2.25-6.9q0-6.2 6-10.39a28.38 28.38 0 015.37-2.88 27.61 27.61 0 007.06-3.79 5.27 5.27 0 001.81-4.12c.03-2.89-1.97-4.32-5.99-4.32z" fill="url(#linear-gradient)"/><path d="M54.47 53.93l-5.84-1.35a11.87 11.87 0 012.46 7.6 12.37 12.37 0 01-2.56 7.87 12.71 12.71 0 01-2 2 23.69 23.69 0 01-6.41 3.56 36.89 36.89 0 00-7.57 3.66 3.87 3.87 0 00-1.78 3q0 4.28 5.4 4.29c4 0 7.15-1 9.39-2.89l3 8a28.19 28.19 0 01-6.67 2.4q-.87.19-1.76.33l5.17 1.2a4.63 4.63 0 005.55-3.46l7.09-30.66a4.62 4.62 0 00-3.47-5.55z" fill="url(#linear-gradient-2)"/></g></g></svg>