<svg xmlns="http://www.w3.org/2000/svg" width="16" height="16"><path d="M14.645 8.021a.5.5 0 0 0-.561.201c-.327.491-.734.761-1.146.761-.408 0-.793-.271-.982-.689l-.007-.015c-.229-.509-.466-1.035-.815-1.462C10.692 6.275 10.142 6 9.5 6c-.817 0-1.544.394-2 1.002A2.497 2.497 0 0 0 5.5 6c-.642 0-1.192.275-1.634.817-.348.427-.586.953-.815 1.462l-.007.015c-.189.419-.574.689-.982.689-.412 0-.819-.27-1.146-.761A.5.5 0 0 0 0 8.5c0 1.074.419 1.978 1.212 2.615C1.923 11.686 2.913 12 4 12a4.22 4.22 0 0 0 2.807-1.064c.276-.245.508-.518.693-.809.185.291.417.564.693.809A4.22 4.22 0 0 0 11 12c1.087 0 2.077-.314 2.788-.885C14.581 10.479 15 9.574 15 8.5a.5.5 0 0 0-.355-.479z"/></svg>