<svg xmlns="http://www.w3.org/2000/svg" width="16" height="16" viewBox="0 0 16 16"><title>weather-cloud-sun</title><path d="M13.922 10.626A2.726 2.726 0 0113.281 16H3.027C1.355 16 0 14.644 0 12.971a3.028 3.028 0 013.567-2.98 2.088 2.088 0 013.719-1.573A3.71 3.71 0 0110.206 7a3.72 3.72 0 013.717 3.626z"/><path d="M5.634 6.856c.591 0 1.152.179 1.621.507a4.435 4.435 0 012.737-1.108 3.5 3.5 0 10-6.645 1.764 2.836 2.836 0 012.288-1.163zM6.5 0a.5.5 0 01.5.5v1a.5.5 0 01-1 0v-1a.5.5 0 01.5-.5zM0 6.5A.5.5 0 01.5 6h1a.5.5 0 010 1h-1a.5.5 0 01-.5-.5zM10.5 3a.5.5 0 01-.354-.853l1-1a.5.5 0 01.707.707l-1 1a.498.498 0 01-.354.146zM2.5 3a.502.502 0 01-.354-.146l-1-1a.5.5 0 01.707-.707l1 1A.5.5 0 012.499 3z"/></svg>