<svg xmlns="http://www.w3.org/2000/svg" width="16" height="16" viewBox="0 0 16 16"><title>temperature2</title><path d="M12.5 2h-3a.5.5 0 0 1 0-1h3a.5.5 0 0 1 0 1zM11.5 4h-2a.5.5 0 0 1 0-1h2a.5.5 0 0 1 0 1zM12.5 6h-3a.5.5 0 0 1 0-1h3a.5.5 0 0 1 0 1zM11.5 8h-2a.5.5 0 0 1 0-1h2a.5.5 0 0 1 0 1zM12.5 10h-3a.5.5 0 0 1 0-1h3a.5.5 0 0 1 0 1zM7.143 9.9A.497.497 0 0 1 7 9.55V1.999c0-1.103-.897-2-2-2s-2 .897-2 2V9.55a.497.497 0 0 1-.143.35A2.982 2.982 0 0 0 2 12c0 1.654 1.346 3 3 3s3-1.346 3-3c0-.79-.304-1.535-.857-2.1zM5 1c.551 0 1 .449 1 1v3H4V2c0-.551.449-1 1-1z"/></svg>