<!-- Generated by IcoMoon.io -->
<svg version="1.1" xmlns="http://www.w3.org/2000/svg" width="16" height="16" viewBox="0 0 16 16">
<title>file-download2</title>
<path d="M11 4h3.627c-0.078-0.126-0.172-0.266-0.286-0.421-0.347-0.473-0.831-1.027-1.362-1.558s-1.085-1.015-1.558-1.362c-0.155-0.114-0.295-0.208-0.421-0.286v3.627z"></path>
<path d="M10.5 5c-0.276 0-0.5-0.224-0.5-0.5v-4.5h-7.75c-0.689 0-1.25 0.561-1.25 1.25v13.5c0 0.689 0.561 1.25 1.25 1.25h11.5c0.689 0 1.25-0.561 1.25-1.25v-9.75h-4.5zM8 15.5l-3.5-3.5h2.5v-5h2v5h2.5l-3.5 3.5z"></path>
</svg>
