<!-- Generated by IcoMoon.io -->
<svg version="1.1" xmlns="http://www.w3.org/2000/svg" width="16" height="16" viewBox="0 0 16 16">
<title>temperature2</title>
<path d="M12.5 2h-3c-0.276 0-0.5-0.224-0.5-0.5s0.224-0.5 0.5-0.5h3c0.276 0 0.5 0.224 0.5 0.5s-0.224 0.5-0.5 0.5z"></path>
<path d="M11.5 4h-2c-0.276 0-0.5-0.224-0.5-0.5s0.224-0.5 0.5-0.5h2c0.276 0 0.5 0.224 0.5 0.5s-0.224 0.5-0.5 0.5z"></path>
<path d="M12.5 6h-3c-0.276 0-0.5-0.224-0.5-0.5s0.224-0.5 0.5-0.5h3c0.276 0 0.5 0.224 0.5 0.5s-0.224 0.5-0.5 0.5z"></path>
<path d="M11.5 8h-2c-0.276 0-0.5-0.224-0.5-0.5s0.224-0.5 0.5-0.5h2c0.276 0 0.5 0.224 0.5 0.5s-0.224 0.5-0.5 0.5z"></path>
<path d="M12.5 10h-3c-0.276 0-0.5-0.224-0.5-0.5s0.224-0.5 0.5-0.5h3c0.276 0 0.5 0.224 0.5 0.5s-0.224 0.5-0.5 0.5z"></path>
<path d="M7.143 9.9c-0.092-0.093-0.143-0.219-0.143-0.35l-0-7.551c0-1.103-0.897-2-2-2s-2 0.897-2 2v7.551c0 0.131-0.051 0.257-0.143 0.35-0.553 0.564-0.857 1.31-0.857 2.1 0 1.654 1.346 3 3 3s3-1.346 3-3c0-0.79-0.304-1.535-0.857-2.1zM5 1c0.551 0 1 0.449 1 1v3h-2v-3c0-0.551 0.449-1 1-1z"></path>
</svg>
